<svg width="26" height="18" viewBox="0 0 26 18" fill="none" xmlns="http://www.w3.org/2000/svg">
<path d="M7.7396 12.4121C7.78871 12.4787 7.85443 12.5332 7.93109 12.5708C8.00774 12.6084 8.09305 12.6281 8.17965 12.6281C8.26625 12.6281 8.35155 12.6084 8.42821 12.5708C8.50487 12.5332 8.57058 12.4787 8.61969 12.4121L13.4377 5.91253C13.4935 5.83757 13.5262 5.74976 13.5323 5.65865C13.5384 5.56755 13.5176 5.47662 13.4722 5.39577C13.4269 5.31491 13.3587 5.2472 13.275 5.20001C13.1913 5.15282 13.0954 5.12794 12.9977 5.12809H3.36162C3.26411 5.12846 3.16855 5.15366 3.08522 5.20096C3.00189 5.24827 2.93395 5.31589 2.88869 5.39657C2.84344 5.47724 2.82259 5.5679 2.82838 5.65882C2.83418 5.74973 2.8664 5.83744 2.92158 5.91253L7.7396 12.4121Z" fill="black"/>
</svg>
