<?xml version="1.0" encoding="UTF-8"?>
<svg xmlns="http://www.w3.org/2000/svg" xmlns:xlink="http://www.w3.org/1999/xlink" width="810pt" height="1439.999935pt" viewBox="0 0 810 1439.999935" version="1.2">
<defs>
<clipPath id="clip1">
  <path d="M 243 476.847656 L 567 476.847656 L 567 962.554688 L 243 962.554688 Z M 243 476.847656 "/>
</clipPath>
</defs>
<g id="surface1">
<g clip-path="url(#clip1)" clip-rule="nonzero">
<path style=" stroke:none;fill-rule:nonzero;fill:rgb(0%,0%,0%);fill-opacity:1;" d="M 564.019531 519.402344 L 564.09375 519.324219 L 515.492188 478.871094 C 514.035156 477.65625 512.195312 476.996094 510.300781 476.996094 L 299.699219 476.996094 C 297.804688 476.996094 295.964844 477.65625 294.507812 478.863281 L 245.90625 519.3125 L 245.980469 519.394531 C 244.199219 520.882812 243 523.035156 243 525.535156 L 243 574.078125 C 243 578.550781 246.621094 582.167969 251.101562 582.167969 L 259.863281 582.167969 L 266.757812 663.070312 L 259.199219 663.070312 C 256.898438 663.070312 254.695312 664.046875 253.164062 665.765625 C 251.632812 667.480469 250.898438 669.769531 251.148438 672.050781 L 267.347656 817.675781 C 267.808594 821.777344 271.269531 824.875 275.398438 824.875 L 280.542969 824.875 L 291.632812 955.007812 C 291.988281 959.195312 295.488281 962.410156 299.699219 962.410156 L 510.300781 962.410156 C 514.511719 962.410156 518.011719 959.195312 518.367188 955.007812 L 529.457031 824.875 L 534.601562 824.875 C 538.730469 824.875 542.199219 821.777344 542.652344 817.675781 L 558.851562 672.050781 C 559.101562 669.769531 558.367188 667.480469 556.835938 665.765625 C 555.304688 664.046875 553.101562 663.070312 550.800781 663.070312 L 543.242188 663.070312 L 550.136719 582.167969 L 558.898438 582.167969 C 563.378906 582.167969 567 578.550781 567 574.078125 L 567 525.535156 C 567 523.035156 565.800781 520.882812 564.019531 519.402344 Z M 302.632812 493.175781 L 507.359375 493.175781 L 536.519531 517.445312 L 273.480469 517.445312 Z M 268.246094 679.25 L 292.039062 679.25 L 299.238281 808.695312 L 282.648438 808.695312 Z M 478.363281 808.695312 L 485.5625 679.25 L 501.746094 679.25 L 494.546875 808.695312 Z M 462.136719 808.695312 L 445.953125 808.695312 L 453.15625 679.25 L 469.339844 679.25 Z M 429.738281 808.695312 L 413.101562 808.695312 L 413.101562 679.25 L 436.9375 679.25 Z M 396.898438 808.695312 L 380.261719 808.695312 L 373.0625 679.25 L 396.898438 679.25 Z M 356.835938 679.25 L 364.039062 808.695312 L 347.855469 808.695312 L 340.652344 679.25 Z M 324.4375 679.25 L 331.636719 808.695312 L 315.453125 808.695312 L 308.253906 679.25 Z M 502.855469 946.226562 L 307.144531 946.226562 L 296.792969 824.875 L 513.207031 824.875 Z M 527.34375 808.695312 L 510.753906 808.695312 L 517.953125 679.25 L 541.746094 679.25 Z M 526.984375 663.070312 L 283.015625 663.070312 L 276.121094 582.167969 L 533.886719 582.167969 Z M 550.800781 565.988281 L 259.199219 565.988281 L 259.199219 533.625 L 550.800781 533.625 Z M 550.800781 565.988281 "/>
</g>
</g>
</svg>
