<svg width="24" height="20" viewBox="0 0 24 20" fill="none" xmlns="http://www.w3.org/2000/svg">
<path d="M21.3535 0.605186H2.76756C2.1514 0.605186 1.56048 0.84778 1.12478 1.2796C0.68909 1.71142 0.444321 2.29709 0.444321 2.90778V16.7233C0.444321 17.334 0.68909 17.9197 1.12478 18.3515C1.56048 18.7833 2.1514 19.0259 2.76756 19.0259H21.3535C21.9697 19.0259 22.5606 18.7833 22.9963 18.3515C23.432 17.9197 23.6768 17.334 23.6768 16.7233V2.90778C23.6768 2.29709 23.432 1.71142 22.9963 1.2796C22.5606 0.84778 21.9697 0.605186 21.3535 0.605186V0.605186ZM21.3535 8.66426H2.76756V5.21037H21.3535V8.66426Z" fill="white"/>
</svg>
