<?xml version="1.0" encoding="UTF-8"?>
<svg xmlns="http://www.w3.org/2000/svg" xmlns:xlink="http://www.w3.org/1999/xlink" width="810pt" height="1439.999935pt" viewBox="0 0 810 1439.999935" version="1.2">
<defs>
<clipPath id="clip1">
  <path d="M 181.355469 421.296875 L 770.105469 421.296875 L 770.105469 1010.046875 L 181.355469 1010.046875 Z M 181.355469 421.296875 "/>
</clipPath>
</defs>
<g id="surface1">
<path style=" stroke:none;fill-rule:nonzero;fill:rgb(0%,0%,0%);fill-opacity:1;" d="M 564.066406 696.0625 L 465.933594 696.0625 L 465.933594 597.929688 L 564.066406 597.929688 Z M 583.691406 578.304688 L 446.308594 578.304688 L 446.308594 715.6875 L 583.691406 715.6875 L 583.691406 578.304688 "/>
<path style=" stroke:none;fill-rule:nonzero;fill:rgb(0%,0%,0%);fill-opacity:1;" d="M 426.683594 911.949219 L 407.054688 911.949219 L 407.054688 931.574219 L 426.683594 931.574219 L 426.683594 911.949219 "/>
<g clip-path="url(#clip1)" clip-rule="nonzero">
<path style=" stroke:none;fill-rule:nonzero;fill:rgb(0%,0%,0%);fill-opacity:1;" d="M 750.515625 670.878906 L 622.945312 747.425781 L 622.945312 701.621094 L 750.515625 625.070312 Z M 348.175781 794.191406 L 348.175781 754.941406 L 465.933594 754.941406 L 465.933594 774.566406 L 485.5625 774.566406 L 485.5625 754.941406 L 603.316406 754.941406 L 603.316406 794.191406 Z M 603.316406 853.070312 L 348.175781 853.070312 L 348.175781 813.820312 L 465.933594 813.820312 L 465.933594 833.445312 L 485.5625 833.445312 L 485.5625 813.820312 L 603.316406 813.820312 Z M 603.316406 951.203125 L 348.175781 951.203125 L 348.175781 931.574219 L 387.429688 931.574219 L 387.429688 911.949219 L 348.175781 911.949219 L 348.175781 872.699219 L 603.316406 872.699219 Z M 603.316406 990.453125 L 564.066406 990.453125 L 564.066406 970.828125 L 603.316406 970.828125 Z M 387.429688 990.453125 L 348.175781 990.453125 L 348.175781 970.828125 L 387.429688 970.828125 Z M 200.980469 625.070312 L 328.550781 701.621094 L 328.550781 747.425781 L 200.980469 670.878906 Z M 348.175781 480.175781 L 387.429688 480.175781 L 387.429688 539.050781 L 348.175781 539.050781 Z M 348.175781 440.921875 L 603.316406 440.921875 L 603.316406 460.546875 L 348.175781 460.546875 Z M 603.316406 735.3125 L 348.175781 735.3125 L 348.175781 558.679688 L 603.316406 558.679688 Z M 765.15625 599.195312 C 762.089844 597.472656 758.296875 597.507812 755.265625 599.347656 L 622.945312 678.734375 L 622.945312 539.050781 L 407.054688 539.050781 L 407.054688 480.175781 L 622.945312 480.175781 L 622.945312 421.296875 L 328.550781 421.296875 L 328.550781 678.734375 L 196.226562 599.347656 C 193.199219 597.507812 189.40625 597.472656 186.339844 599.195312 C 183.273438 600.960938 181.355469 604.21875 181.355469 607.742188 L 181.355469 676.4375 C 181.355469 679.886719 183.15625 683.066406 186.109375 684.832031 L 328.550781 770.3125 L 328.550781 1010.082031 L 407.054688 1010.082031 L 407.054688 970.828125 L 544.4375 970.828125 L 544.4375 1010.082031 L 622.945312 1010.082031 L 622.945312 770.3125 L 765.386719 684.832031 C 768.339844 683.066406 770.140625 679.886719 770.140625 676.4375 L 770.140625 607.742188 C 770.140625 604.21875 768.222656 600.960938 765.15625 599.195312 "/>
</g>
<path style=" stroke:none;fill-rule:nonzero;fill:rgb(0%,0%,0%);fill-opacity:1;" d="M 426.683594 578.304688 L 407.054688 578.304688 L 407.054688 597.929688 L 426.683594 597.929688 L 426.683594 578.304688 "/>
<path style=" stroke:none;fill-rule:nonzero;fill:rgb(0%,0%,0%);fill-opacity:1;" d="M 426.683594 617.558594 L 407.054688 617.558594 L 407.054688 637.183594 L 426.683594 637.183594 L 426.683594 617.558594 "/>
</g>
</svg>
