<?xml version="1.0" encoding="UTF-8"?>
<svg xmlns="http://www.w3.org/2000/svg" xmlns:xlink="http://www.w3.org/1999/xlink" width="810pt" height="1439.999935pt" viewBox="0 0 810 1439.999935" version="1.2">
<defs>
<clipPath id="clip1">
  <path d="M 243 388.582031 L 567 388.582031 L 567 826.582031 L 243 826.582031 Z M 243 388.582031 "/>
</clipPath>
</defs>
<g id="surface1">
<g clip-path="url(#clip1)" clip-rule="nonzero">
<path style=" stroke:none;fill-rule:nonzero;fill:rgb(6.269836%,5.879211%,5.099487%);fill-opacity:1;" d="M 461.097656 720.496094 L 461.097656 806.972656 L 262.617188 806.972656 L 262.617188 408.160156 L 547.507812 408.160156 L 547.507812 720.496094 Z M 480.632812 791.148438 L 480.632812 740.046875 L 535.585938 740.046875 Z M 243.078125 388.609375 L 243.078125 826.523438 L 471.292969 826.523438 L 492.316406 806.972656 L 547.507812 755.648438 L 567.046875 737.476562 L 567.046875 388.609375 L 243.078125 388.609375 "/>
</g>
<path style=" stroke:none;fill-rule:nonzero;fill:rgb(6.269836%,5.879211%,5.099487%);fill-opacity:1;" d="M 496.394531 467.925781 L 313.738281 467.925781 L 313.738281 448.371094 L 496.394531 448.371094 L 496.394531 467.925781 "/>
<path style=" stroke:none;fill-rule:nonzero;fill:rgb(6.269836%,5.879211%,5.099487%);fill-opacity:1;" d="M 496.394531 518.535156 L 313.738281 518.535156 L 313.738281 498.984375 L 496.394531 498.984375 L 496.394531 518.535156 "/>
<path style=" stroke:none;fill-rule:nonzero;fill:rgb(6.269836%,5.879211%,5.099487%);fill-opacity:1;" d="M 496.394531 569.148438 L 313.738281 569.148438 L 313.738281 549.597656 L 496.394531 549.597656 L 496.394531 569.148438 "/>
<path style=" stroke:none;fill-rule:nonzero;fill:rgb(6.269836%,5.879211%,5.099487%);fill-opacity:1;" d="M 496.394531 619.761719 L 313.738281 619.761719 L 313.738281 600.207031 L 496.394531 600.207031 L 496.394531 619.761719 "/>
<path style=" stroke:none;fill-rule:nonzero;fill:rgb(6.269836%,5.879211%,5.099487%);fill-opacity:1;" d="M 496.394531 670.375 L 313.738281 670.375 L 313.738281 650.820312 L 496.394531 650.820312 L 496.394531 670.375 "/>
</g>
</svg>
