<?xml version="1.0" encoding="UTF-8"?>
<svg xmlns="http://www.w3.org/2000/svg" xmlns:xlink="http://www.w3.org/1999/xlink" width="810pt" height="1439.999935pt" viewBox="0 0 810 1439.999935" version="1.2">
<g id="surface1">
<path style=" stroke:none;fill-rule:nonzero;fill:rgb(54.508972%,58.039856%,66.668701%);fill-opacity:1;" d="M 404.78125 878.789062 C 316.863281 878.789062 245.339844 807.261719 245.339844 719.351562 C 245.339844 631.441406 316.863281 559.914062 404.78125 559.914062 C 492.691406 559.914062 564.21875 631.441406 564.21875 719.351562 C 564.21875 807.261719 492.691406 878.789062 404.78125 878.789062 Z M 404.78125 580.621094 C 328.28125 580.621094 266.046875 642.855469 266.046875 719.351562 C 266.046875 795.851562 328.28125 858.082031 404.78125 858.082031 C 481.28125 858.082031 543.511719 795.851562 543.511719 719.351562 C 543.511719 642.855469 481.28125 580.621094 404.78125 580.621094 Z M 404.78125 580.621094 "/>
<path style=" stroke:none;fill-rule:nonzero;fill:rgb(54.508972%,58.039856%,66.668701%);fill-opacity:1;" d="M 374.496094 667.585938 C 374.496094 668.128906 374.46875 668.671875 374.414062 669.210938 C 374.363281 669.75 374.28125 670.289062 374.175781 670.820312 C 374.070312 671.351562 373.9375 671.878906 373.78125 672.394531 C 373.625 672.914062 373.441406 673.425781 373.234375 673.925781 C 373.027344 674.429688 372.792969 674.917969 372.539062 675.394531 C 372.28125 675.875 372.003906 676.339844 371.703125 676.789062 C 371.402344 677.242188 371.078125 677.675781 370.734375 678.097656 C 370.390625 678.515625 370.027344 678.917969 369.644531 679.300781 C 369.257812 679.683594 368.859375 680.046875 368.4375 680.390625 C 368.019531 680.738281 367.582031 681.058594 367.132812 681.359375 C 366.683594 681.664062 366.21875 681.941406 365.738281 682.195312 C 365.261719 682.453125 364.769531 682.683594 364.269531 682.890625 C 363.769531 683.097656 363.257812 683.28125 362.738281 683.4375 C 362.21875 683.597656 361.695312 683.726562 361.160156 683.835938 C 360.628906 683.941406 360.09375 684.019531 359.554688 684.074219 C 359.011719 684.125 358.472656 684.152344 357.929688 684.152344 C 357.386719 684.152344 356.847656 684.125 356.304688 684.074219 C 355.765625 684.019531 355.230469 683.941406 354.699219 683.835938 C 354.167969 683.726562 353.640625 683.597656 353.121094 683.4375 C 352.601562 683.28125 352.09375 683.097656 351.589844 682.890625 C 351.089844 682.683594 350.601562 682.453125 350.121094 682.195312 C 349.644531 681.941406 349.179688 681.664062 348.726562 681.359375 C 348.277344 681.058594 347.839844 680.738281 347.421875 680.390625 C 347 680.046875 346.601562 679.683594 346.21875 679.300781 C 345.832031 678.917969 345.46875 678.515625 345.125 678.097656 C 344.78125 677.675781 344.457031 677.242188 344.15625 676.789062 C 343.855469 676.339844 343.578125 675.875 343.320312 675.394531 C 343.066406 674.917969 342.832031 674.429688 342.625 673.925781 C 342.417969 673.425781 342.234375 672.914062 342.078125 672.394531 C 341.921875 671.878906 341.789062 671.351562 341.683594 670.820312 C 341.578125 670.289062 341.496094 669.75 341.445312 669.210938 C 341.390625 668.671875 341.363281 668.128906 341.363281 667.585938 C 341.363281 667.046875 341.390625 666.503906 341.445312 665.964844 C 341.496094 665.425781 341.578125 664.886719 341.683594 664.355469 C 341.789062 663.824219 341.921875 663.296875 342.078125 662.777344 C 342.234375 662.261719 342.417969 661.75 342.625 661.25 C 342.832031 660.746094 343.066406 660.257812 343.320312 659.777344 C 343.578125 659.300781 343.855469 658.835938 344.15625 658.386719 C 344.457031 657.933594 344.78125 657.5 345.125 657.078125 C 345.46875 656.660156 345.832031 656.257812 346.21875 655.875 C 346.601562 655.492188 347 655.128906 347.421875 654.78125 C 347.839844 654.4375 348.277344 654.117188 348.726562 653.816406 C 349.179688 653.511719 349.644531 653.234375 350.121094 652.980469 C 350.601562 652.722656 351.089844 652.492188 351.589844 652.285156 C 352.09375 652.078125 352.601562 651.894531 353.121094 651.734375 C 353.640625 651.578125 354.167969 651.445312 354.699219 651.339844 C 355.230469 651.234375 355.765625 651.15625 356.304688 651.101562 C 356.847656 651.050781 357.386719 651.023438 357.929688 651.023438 C 358.472656 651.023438 359.011719 651.050781 359.554688 651.101562 C 360.09375 651.15625 360.628906 651.234375 361.160156 651.339844 C 361.695312 651.445312 362.21875 651.578125 362.738281 651.734375 C 363.257812 651.894531 363.769531 652.078125 364.269531 652.285156 C 364.769531 652.492188 365.261719 652.722656 365.738281 652.980469 C 366.21875 653.234375 366.683594 653.511719 367.132812 653.816406 C 367.582031 654.117188 368.019531 654.4375 368.4375 654.78125 C 368.859375 655.128906 369.257812 655.492188 369.644531 655.875 C 370.027344 656.257812 370.390625 656.660156 370.734375 657.078125 C 371.078125 657.5 371.402344 657.933594 371.703125 658.386719 C 372.003906 658.835938 372.28125 659.300781 372.539062 659.777344 C 372.792969 660.257812 373.027344 660.746094 373.234375 661.25 C 373.441406 661.75 373.625 662.261719 373.78125 662.777344 C 373.9375 663.296875 374.070312 663.824219 374.175781 664.355469 C 374.28125 664.886719 374.363281 665.425781 374.414062 665.964844 C 374.46875 666.503906 374.496094 667.046875 374.496094 667.585938 Z M 374.496094 667.585938 "/>
<path style=" stroke:none;fill-rule:nonzero;fill:rgb(54.508972%,58.039856%,66.668701%);fill-opacity:1;" d="M 465.605469 667.585938 C 465.605469 668.128906 465.578125 668.671875 465.523438 669.210938 C 465.472656 669.75 465.390625 670.289062 465.285156 670.820312 C 465.179688 671.351562 465.050781 671.878906 464.890625 672.394531 C 464.734375 672.914062 464.550781 673.425781 464.34375 673.925781 C 464.136719 674.429688 463.90625 674.917969 463.648438 675.398438 C 463.394531 675.875 463.113281 676.339844 462.8125 676.792969 C 462.511719 677.242188 462.1875 677.675781 461.84375 678.097656 C 461.5 678.515625 461.136719 678.917969 460.753906 679.300781 C 460.371094 679.683594 459.96875 680.050781 459.546875 680.394531 C 459.128906 680.738281 458.695312 681.058594 458.242188 681.363281 C 457.792969 681.664062 457.328125 681.941406 456.847656 682.195312 C 456.371094 682.453125 455.878906 682.683594 455.378906 682.890625 C 454.878906 683.101562 454.367188 683.28125 453.847656 683.441406 C 453.328125 683.597656 452.804688 683.730469 452.269531 683.835938 C 451.738281 683.941406 451.203125 684.019531 450.664062 684.074219 C 450.125 684.125 449.582031 684.152344 449.039062 684.152344 C 448.496094 684.152344 447.957031 684.125 447.414062 684.074219 C 446.875 684.019531 446.339844 683.941406 445.808594 683.835938 C 445.277344 683.730469 444.75 683.597656 444.230469 683.441406 C 443.710938 683.28125 443.203125 683.101562 442.699219 682.890625 C 442.199219 682.683594 441.707031 682.453125 441.230469 682.195312 C 440.753906 681.941406 440.289062 681.664062 439.835938 681.363281 C 439.386719 681.058594 438.949219 680.738281 438.53125 680.394531 C 438.109375 680.050781 437.710938 679.683594 437.324219 679.300781 C 436.941406 678.917969 436.578125 678.515625 436.234375 678.097656 C 435.890625 677.675781 435.566406 677.242188 435.265625 676.789062 C 434.964844 676.339844 434.6875 675.875 434.429688 675.398438 C 434.175781 674.917969 433.941406 674.429688 433.734375 673.925781 C 433.527344 673.425781 433.34375 672.914062 433.1875 672.394531 C 433.03125 671.878906 432.898438 671.351562 432.792969 670.820312 C 432.6875 670.289062 432.605469 669.75 432.554688 669.210938 C 432.5 668.671875 432.472656 668.128906 432.472656 667.585938 C 432.472656 667.046875 432.5 666.503906 432.554688 665.964844 C 432.605469 665.425781 432.6875 664.886719 432.792969 664.355469 C 432.898438 663.824219 433.03125 663.296875 433.1875 662.777344 C 433.34375 662.261719 433.527344 661.75 433.734375 661.25 C 433.941406 660.746094 434.175781 660.257812 434.429688 659.777344 C 434.6875 659.300781 434.964844 658.835938 435.265625 658.382812 C 435.566406 657.933594 435.890625 657.5 436.234375 657.078125 C 436.578125 656.660156 436.941406 656.257812 437.324219 655.875 C 437.710938 655.492188 438.109375 655.125 438.53125 654.78125 C 438.949219 654.4375 439.386719 654.117188 439.835938 653.8125 C 440.289062 653.511719 440.753906 653.234375 441.230469 652.976562 C 441.707031 652.722656 442.199219 652.492188 442.699219 652.285156 C 443.203125 652.074219 443.710938 651.894531 444.230469 651.734375 C 444.75 651.578125 445.277344 651.445312 445.808594 651.339844 C 446.339844 651.234375 446.875 651.15625 447.414062 651.101562 C 447.957031 651.050781 448.496094 651.023438 449.039062 651.023438 C 449.582031 651.023438 450.125 651.050781 450.664062 651.101562 C 451.203125 651.15625 451.738281 651.234375 452.269531 651.339844 C 452.804688 651.445312 453.328125 651.578125 453.847656 651.734375 C 454.367188 651.894531 454.878906 652.074219 455.378906 652.285156 C 455.878906 652.492188 456.371094 652.722656 456.847656 652.976562 C 457.328125 653.234375 457.792969 653.511719 458.242188 653.8125 C 458.695312 654.117188 459.128906 654.4375 459.546875 654.78125 C 459.96875 655.125 460.371094 655.492188 460.753906 655.875 C 461.136719 656.257812 461.5 656.660156 461.84375 657.078125 C 462.1875 657.5 462.511719 657.933594 462.8125 658.382812 C 463.113281 658.835938 463.394531 659.300781 463.648438 659.777344 C 463.90625 660.257812 464.136719 660.746094 464.34375 661.25 C 464.550781 661.75 464.734375 662.261719 464.890625 662.777344 C 465.050781 663.296875 465.179688 663.824219 465.285156 664.355469 C 465.390625 664.886719 465.472656 665.425781 465.523438 665.964844 C 465.578125 666.503906 465.605469 667.046875 465.605469 667.585938 Z M 465.605469 667.585938 "/>
<path style=" stroke:none;fill-rule:nonzero;fill:rgb(54.508972%,58.039856%,66.668701%);fill-opacity:1;" d="M 404.777344 728.144531 C 446.457031 728.144531 482.808594 754.851562 495.234375 794.605469 C 496.597656 798.972656 494.164062 803.613281 489.796875 804.984375 C 485.421875 806.34375 480.785156 803.914062 479.417969 799.546875 C 469.171875 766.746094 439.175781 744.707031 404.777344 744.707031 C 370.378906 744.707031 340.386719 766.746094 330.136719 799.546875 C 328.769531 803.914062 324.121094 806.339844 319.761719 804.984375 C 315.394531 803.617188 312.957031 798.972656 314.324219 794.605469 C 326.75 754.851562 363.101562 728.144531 404.777344 728.144531 Z M 404.777344 728.144531 "/>
</g>
</svg>
